#!OML:ASF H:\Male1\Project 1\Capture day 1\Session 1\Male1.ASF
:FULLY-SPECIFIED
:DEGREES
708
root 13.1567 14.4866 0.22141 500.353 -82.1005 -526.926
lowerback 26.7428 3.02492 2.60704
upperback 15.0355 2.78441 1.87961
thorax 2.04874 0.742614 -0.122795
lowerneck -8.27644 -2.31189 6.87963
upperneck -4.37843 -3.80823 0.558557
head -0.104573 -2.06868 -1.05583
rclavicle -1.52567e-014 -3.81667e-014
rhumerus -24.7069 29.0662 -79.951
rradius 63.156
rwrist -31.9761
rhand -29.3442 4.41495
rfingers 7.12502
rthumb -2.68416 -25.5479
lclavicle -1.52567e-014 -3.81667e-014
lhumerus -3.44585 -36.631 83.6121
lradius 46.3088
lwrist 9.0192
lhand -35.1084 6.08656
lfingers 7.12502
lthumb -8.24942 35.9055
rfemur -39.2679 -20.7262 20.1445
rtibia 78.8317
rfoot 3.13281 -21.1052
rtoes -8.69682
lfemur -42.4286 9.8918 -15.7964
ltibia 82.3459
lfoot 9.14807 5.10671
ltoes -8.99797
709
root 13.1394 14.5043 0.220316 499.891 -82.2451 -526.164
lowerback 26.7079 3.10797 2.63092
upperback 14.9069 2.93039 2.14826
thorax 1.90559 0.814019 0.119288
lowerneck -8.27411 -2.44363 6.73115
upperneck -4.60453 -3.9684 0.879091
head -0.172187 -2.15399 -0.928638
rclavicle -3.13086e-014 7.15625e-015
rhumerus -25.2627 28.0522 -79.6356
rradius 62.951
rwrist -32.0807
rhand -29.6796 4.03164
rfingers 7.12502
rthumb -3.00804 -25.9269
lclavicle -3.13086e-014 7.15625e-015
lhumerus -3.7172 -36.7994 84.0888
lradius 46.1978
lwrist 9.17537
lhand -35.106 5.9691
lfingers 7.12502
lthumb -8.24706 35.7881
rfemur -38.9489 -21.59 19.6859
rtibia 77.9024
rfoot 2.6283 -21.5275
rtoes -7.64295
lfemur -42.7324 9.90492 -15.6045
ltibia 81.9085
lfoot 9.24289 5.35945
ltoes -8.67433
710
root 13.123 14.521 0.220514 499.352 -82.3012 -525.347
lowerback 26.7336 3.14251 2.7716
upperback 14.786 3.03436 2.36167
thorax 1.75367 0.871823 0.243641
lowerneck -8.26329 -2.48228 6.64209
upperneck -4.72678 -4.00929 1.03918
head -0.208593 -2.17705 -0.8618
rclavicle 5.88403e-014 5.56597e-015
rhumerus -25.6718 27.1407 -79.378
rradius 62.703
rwrist -32.1474
rhand -29.9577 3.64478
rfingers 7.12502
rthumb -3.27657 -26.3098
lclavicle 5.88403e-014 5.56597e-015
lhumerus -3.96512 -37.1055 84.3132
lradius 46.25
lwrist 9.3021
lhand -35.1415 5.86581
lfingers 7.12502
lthumb -8.28136 35.6835
rfemur -38.5791 -22.3205 19.3148
rtibia 76.9002
rfoot 2.11667 -21.978
rtoes -6.713
lfemur -43.0647 10.0139 -15.3382
ltibia 81.5558
lfoot 9.3318 5.55663
ltoes -8.42108
711
root 13.108 14.5354 0.22101 498.99 -82.3196 -524.709
lowerback 26.8031 3.1472 2.94065
upperback 14.676 3.10174 2.52617
thorax 1.59896 0.912934 0.306387
lowerneck -8.26867 -2.45013 6.62431
upperneck -4.77696 -3.96458 1.05852
head -0.221347 -2.15605 -0.851311
rclavicle 3.78685e-014 -1.70955e-014
rhumerus -25.9588 26.3471 -79.1537
rradius 62.4619
rwrist -32.1696
rhand -30.2 3.28908
rfingers 7.12502
rthumb -3.51061 -26.6618
lclavicle 3.78685e-014 -1.70955e-014
lhumerus -4.15392 -37.5428 84.3075
lradius 46.4479
lwrist 9.3545
lhand -35.2147 5.79357
lfingers 7.12502
lthumb -8.35198 35.6084
rfemur -38.2205 -22.9212 18.9877
rtibia 75.8714
rfoot 1.66932 -22.4171
rtoes -6.12386
lfemur -43.4408 10.1916 -15.071
ltibia 81.2668
lfoot 9.43303 5.70973
ltoes -8.27244
712
root 13.094 14.5472 0.220829 499.051 -82.325 -524.482
lowerback 26.8976 3.14492 3.06061
upperback 14.5843 3.14444 2.65286
thorax 1.45218 0.93816 0.361129
lowerneck -8.30029 -2.36889 6.66051
upperneck -4.79661 -3.86269 0.980007
head -0.221462 -2.10654 -0.880735
rclavicle 9.93923e-016 -2.50469e-014
rhumerus -26.1508 25.6882 -78.9374
rradius 62.2666
rwrist -32.1679
rhand -30.397 2.99797
rfingers 7.12502
rthumb -3.70084 -26.9496
lclavicle 9.93923e-016 -2.50469e-014
lhumerus -4.26076 -38.08 84.1074
lradius 46.7586
lwrist 9.32571
lhand -35.3414 5.72404
lfingers 7.12502
lthumb -8.47426 35.534
rfemur -37.9135 -23.3717 18.6732
rtibia 74.8561
rfoot 1.29513 -22.8202
rtoes -5.76914
lfemur -43.8547 10.4339 -14.8526
ltibia 81.0202
lfoot 9.55083 5.84216
ltoes -8.17798
713
root 13.0809 14.5562 0.218821 499.388 -82.3255 -524.506
lowerback 27.0008 3.14175 3.11829
upperback 14.5119 3.16756 2.76094
thorax 1.32008 0.94891 0.435562
lowerneck -8.36793 -2.25919 6.73383
upperneck -4.81572 -3.73045 0.841799
head -0.216182 -2.04286 -0.935499
rclavicle 4.91992e-014 1.11319e-014
rhumerus -26.2696 25.1593 -78.709
rradius 62.137
rwrist -32.1765
rhand -30.5052 2.8159
rfingers 7.12502
rthumb -3.80536 -27.1299
lclavicle 4.91992e-014 1.11319e-014
lhumerus -4.2775 -38.6849 83.7528
lradius 47.1419
lwrist 9.23027
lhand -35.543 5.67128
lfingers 7.12502
lthumb -8.66879 35.4733
rfemur -37.6814 -23.6766 18.3959
rtibia 73.8729
rfoot 0.982173 -23.1812
rtoes -5.5668
lfemur -44.3156 10.7241 -14.6759
ltibia 80.8005
lfoot 9.69778 5.96024
ltoes -8.0919
714
root 13.0684 14.5636 0.21466 499.727 -82.3111 -524.522
lowerback 27.1204 3.1362 3.14233
upperback 14.4656 3.17427 2.86801
thorax 1.20784 0.947264 0.531993
lowerneck -8.46709 -2.1351 6.83403
upperneck -4.86541 -3.58535 0.664606
head -0.215675 -1.97484 -1.00726
rclavicle 4.77083e-015 5.1684e-015
rhumerus -26.3348 24.7615 -78.4636
rradius 62.0768
rwrist -32.1943
rhand -30.5086 2.73713
rfingers 7.12502
rthumb -3.80864 -27.2086
lclavicle 4.77083e-015 5.1684e-015
lhumerus -4.21324 -39.3159 83.2902
lradius 47.5538
lwrist 9.07756
lhand -35.82 5.6769
lfingers 7.12502
lthumb -8.93615 35.4677
rfemur -37.4784 -23.8569 18.1785
rtibia 72.9115
rfoot 0.687554 -23.511
rtoes -5.40136
lfemur -44.7859 11.0486 -14.505
ltibia 80.5946
lfoot 9.87285 6.04663
ltoes -8.01152
